<svg xmlns="http://www.w3.org/2000/svg" xmlns:xlink="http://www.w3.org/1999/xlink" width="423" zoomAndPan="magnify" viewBox="0 0 317.25 62.999997" height="84" preserveAspectRatio="xMidYMid meet" version="1.0"><defs><g/><clipPath id="9b25f52c9a"><path d="M 153.421875 24.101562 L 164.316406 24.101562 L 164.316406 34.996094 L 153.421875 34.996094 Z M 153.421875 24.101562 " clip-rule="nonzero"/></clipPath><clipPath id="3ca70c66ed"><path d="M 158.871094 24.101562 C 155.863281 24.101562 153.421875 26.539062 153.421875 29.550781 C 153.421875 32.558594 155.863281 34.996094 158.871094 34.996094 C 161.878906 34.996094 164.316406 32.558594 164.316406 29.550781 C 164.316406 26.539062 161.878906 24.101562 158.871094 24.101562 Z M 158.871094 24.101562 " clip-rule="nonzero"/></clipPath><clipPath id="7a786235c1"><path d="M 0 13.539062 L 33.671875 13.539062 L 33.671875 48.707031 L 0 48.707031 Z M 0 13.539062 " clip-rule="nonzero"/></clipPath><clipPath id="f357019f1d"><path d="M 19.339844 29.921875 L 4.316406 29.921875 C 3.730469 29.921875 3.308594 29.367188 3.46875 28.808594 L 7.59375 14.179688 C 7.699219 13.800781 8.046875 13.539062 8.441406 13.539062 L 23.46875 13.539062 C 24.050781 13.539062 24.472656 14.09375 24.3125 14.652344 L 20.1875 29.285156 C 20.082031 29.660156 19.734375 29.921875 19.339844 29.921875 Z M 9.582031 40.96875 L 11.707031 33.433594 C 11.863281 32.875 11.441406 32.320312 10.859375 32.320312 L 3.132812 32.320312 C 2.738281 32.320312 2.394531 32.582031 2.285156 32.960938 L 0.164062 40.496094 C 0.00390625 41.054688 0.425781 41.605469 1.007812 41.605469 L 8.734375 41.605469 C 9.128906 41.605469 9.476562 41.347656 9.582031 40.96875 Z M 13.488281 32.960938 L 9.363281 47.59375 C 9.207031 48.152344 9.628906 48.707031 10.210938 48.707031 L 25.238281 48.707031 C 25.632812 48.707031 25.980469 48.445312 26.085938 48.066406 L 30.210938 33.433594 C 30.367188 32.875 29.945312 32.320312 29.363281 32.320312 L 14.335938 32.320312 C 13.941406 32.320312 13.597656 32.582031 13.488281 32.960938 Z M 24.097656 21.277344 L 21.972656 28.808594 C 21.816406 29.367188 22.238281 29.921875 22.820312 29.921875 L 30.546875 29.921875 C 30.9375 29.921875 31.285156 29.660156 31.390625 29.285156 L 33.515625 21.75 C 33.671875 21.191406 33.253906 20.636719 32.667969 20.636719 L 24.945312 20.636719 C 24.550781 20.636719 24.203125 20.898438 24.097656 21.277344 Z M 24.097656 21.277344 " clip-rule="nonzero"/></clipPath><linearGradient x1="114.296444" gradientTransform="matrix(0.070668, 0, 0, 0.0703337, 0.129283, 13.538686)" y1="-47.633964" x2="358.615116" gradientUnits="userSpaceOnUse" y2="547.617613" id="d3ffccef64"><stop stop-opacity="1" stop-color="rgb(0%, 98.799133%, 65.899658%)" offset="0"/><stop stop-opacity="1" stop-color="rgb(0%, 98.799133%, 65.899658%)" offset="0.0625"/><stop stop-opacity="1" stop-color="rgb(0.0213623%, 98.773193%, 65.965271%)" offset="0.09375"/><stop stop-opacity="1" stop-color="rgb(0.100708%, 98.677063%, 66.210938%)" offset="0.101562"/><stop stop-opacity="1" stop-color="rgb(0.216675%, 98.536682%, 66.571045%)" offset="0.109375"/><stop stop-opacity="1" stop-color="rgb(0.332642%, 98.396301%, 66.931152%)" offset="0.117188"/><stop stop-opacity="1" stop-color="rgb(0.448608%, 98.25592%, 67.289734%)" offset="0.125"/><stop stop-opacity="1" stop-color="rgb(0.564575%, 98.117065%, 67.649841%)" offset="0.132812"/><stop stop-opacity="1" stop-color="rgb(0.680542%, 97.976685%, 68.008423%)" offset="0.140625"/><stop stop-opacity="1" stop-color="rgb(0.796509%, 97.836304%, 68.36853%)" offset="0.148438"/><stop stop-opacity="1" stop-color="rgb(0.91095%, 97.695923%, 68.727112%)" offset="0.15625"/><stop stop-opacity="1" stop-color="rgb(1.026917%, 97.555542%, 69.087219%)" offset="0.164062"/><stop stop-opacity="1" stop-color="rgb(1.142883%, 97.415161%, 69.445801%)" offset="0.171875"/><stop stop-opacity="1" stop-color="rgb(1.25885%, 97.27478%, 69.805908%)" offset="0.179688"/><stop stop-opacity="1" stop-color="rgb(1.374817%, 97.134399%, 70.16449%)" offset="0.1875"/><stop stop-opacity="1" stop-color="rgb(1.490784%, 96.995544%, 70.524597%)" offset="0.195312"/><stop stop-opacity="1" stop-color="rgb(1.60675%, 96.855164%, 70.884705%)" offset="0.203125"/><stop stop-opacity="1" stop-color="rgb(1.722717%, 96.714783%, 71.243286%)" offset="0.210938"/><stop stop-opacity="1" stop-color="rgb(1.838684%, 96.574402%, 71.603394%)" offset="0.21875"/><stop stop-opacity="1" stop-color="rgb(1.954651%, 96.434021%, 71.961975%)" offset="0.226562"/><stop stop-opacity="1" stop-color="rgb(2.070618%, 96.29364%, 72.322083%)" offset="0.234375"/><stop stop-opacity="1" stop-color="rgb(2.186584%, 96.153259%, 72.680664%)" offset="0.242188"/><stop stop-opacity="1" stop-color="rgb(2.302551%, 96.014404%, 73.040771%)" offset="0.25"/><stop stop-opacity="1" stop-color="rgb(2.418518%, 95.874023%, 73.399353%)" offset="0.257812"/><stop stop-opacity="1" stop-color="rgb(2.534485%, 95.733643%, 73.75946%)" offset="0.265625"/><stop stop-opacity="1" stop-color="rgb(2.650452%, 95.593262%, 74.119568%)" offset="0.273438"/><stop stop-opacity="1" stop-color="rgb(2.766418%, 95.452881%, 74.478149%)" offset="0.281125"/><stop stop-opacity="1" stop-color="rgb(2.824402%, 95.38269%, 74.658203%)" offset="0.28125"/><stop stop-opacity="1" stop-color="rgb(2.882385%, 95.3125%, 74.838257%)" offset="0.289062"/><stop stop-opacity="1" stop-color="rgb(2.998352%, 95.172119%, 75.196838%)" offset="0.296875"/><stop stop-opacity="1" stop-color="rgb(3.114319%, 95.031738%, 75.556946%)" offset="0.304687"/><stop stop-opacity="1" stop-color="rgb(3.230286%, 94.892883%, 75.915527%)" offset="0.3125"/><stop stop-opacity="1" stop-color="rgb(3.346252%, 94.752502%, 76.275635%)" offset="0.320312"/><stop stop-opacity="1" stop-color="rgb(3.462219%, 94.612122%, 76.634216%)" offset="0.328125"/><stop stop-opacity="1" stop-color="rgb(3.578186%, 94.471741%, 76.994324%)" offset="0.335937"/><stop stop-opacity="1" stop-color="rgb(3.694153%, 94.33136%, 77.352905%)" offset="0.34375"/><stop stop-opacity="1" stop-color="rgb(3.81012%, 94.190979%, 77.713013%)" offset="0.351562"/><stop stop-opacity="1" stop-color="rgb(3.926086%, 94.050598%, 78.07312%)" offset="0.359375"/><stop stop-opacity="1" stop-color="rgb(4.042053%, 93.910217%, 78.431702%)" offset="0.367188"/><stop stop-opacity="1" stop-color="rgb(4.15802%, 93.771362%, 78.791809%)" offset="0.375"/><stop stop-opacity="1" stop-color="rgb(4.273987%, 93.630981%, 79.150391%)" offset="0.382812"/><stop stop-opacity="1" stop-color="rgb(4.389954%, 93.490601%, 79.510498%)" offset="0.390625"/><stop stop-opacity="1" stop-color="rgb(4.50592%, 93.35022%, 79.86908%)" offset="0.398437"/><stop stop-opacity="1" stop-color="rgb(4.621887%, 93.209839%, 80.229187%)" offset="0.40625"/><stop stop-opacity="1" stop-color="rgb(4.737854%, 93.069458%, 80.587769%)" offset="0.414063"/><stop stop-opacity="1" stop-color="rgb(4.853821%, 92.929077%, 80.947876%)" offset="0.421875"/><stop stop-opacity="1" stop-color="rgb(4.969788%, 92.788696%, 81.306458%)" offset="0.429687"/><stop stop-opacity="1" stop-color="rgb(5.085754%, 92.649841%, 81.666565%)" offset="0.4375"/><stop stop-opacity="1" stop-color="rgb(5.201721%, 92.50946%, 82.026672%)" offset="0.445313"/><stop stop-opacity="1" stop-color="rgb(5.317688%, 92.36908%, 82.385254%)" offset="0.453125"/><stop stop-opacity="1" stop-color="rgb(5.433655%, 92.228699%, 82.745361%)" offset="0.460937"/><stop stop-opacity="1" stop-color="rgb(5.549622%, 92.088318%, 83.103943%)" offset="0.46875"/><stop stop-opacity="1" stop-color="rgb(5.665588%, 91.947937%, 83.46405%)" offset="0.476563"/><stop stop-opacity="1" stop-color="rgb(5.781555%, 91.807556%, 83.822632%)" offset="0.484375"/><stop stop-opacity="1" stop-color="rgb(5.897522%, 91.668701%, 84.182739%)" offset="0.492187"/><stop stop-opacity="1" stop-color="rgb(6.013489%, 91.52832%, 84.541321%)" offset="0.5"/><stop stop-opacity="1" stop-color="rgb(6.129456%, 91.387939%, 84.901428%)" offset="0.507812"/><stop stop-opacity="1" stop-color="rgb(6.245422%, 91.247559%, 85.261536%)" offset="0.515625"/><stop stop-opacity="1" stop-color="rgb(6.361389%, 91.107178%, 85.620117%)" offset="0.523438"/><stop stop-opacity="1" stop-color="rgb(6.477356%, 90.966797%, 85.980225%)" offset="0.53125"/><stop stop-opacity="1" stop-color="rgb(6.593323%, 90.826416%, 86.338806%)" offset="0.539062"/><stop stop-opacity="1" stop-color="rgb(6.70929%, 90.686035%, 86.698914%)" offset="0.546875"/><stop stop-opacity="1" stop-color="rgb(6.825256%, 90.54718%, 87.057495%)" offset="0.554688"/><stop stop-opacity="1" stop-color="rgb(6.941223%, 90.406799%, 87.417603%)" offset="0.5625"/><stop stop-opacity="1" stop-color="rgb(7.05719%, 90.266418%, 87.776184%)" offset="0.570312"/><stop stop-opacity="1" stop-color="rgb(7.173157%, 90.126038%, 88.136292%)" offset="0.578125"/><stop stop-opacity="1" stop-color="rgb(7.289124%, 89.985657%, 88.494873%)" offset="0.585938"/><stop stop-opacity="1" stop-color="rgb(7.40509%, 89.845276%, 88.85498%)" offset="0.59375"/><stop stop-opacity="1" stop-color="rgb(7.521057%, 89.704895%, 89.215088%)" offset="0.601562"/><stop stop-opacity="1" stop-color="rgb(7.637024%, 89.564514%, 89.573669%)" offset="0.609375"/><stop stop-opacity="1" stop-color="rgb(7.752991%, 89.425659%, 89.933777%)" offset="0.617188"/><stop stop-opacity="1" stop-color="rgb(7.867432%, 89.285278%, 90.292358%)" offset="0.625"/><stop stop-opacity="1" stop-color="rgb(7.983398%, 89.144897%, 90.652466%)" offset="0.632812"/><stop stop-opacity="1" stop-color="rgb(8.099365%, 89.004517%, 91.011047%)" offset="0.640625"/><stop stop-opacity="1" stop-color="rgb(8.215332%, 88.864136%, 91.371155%)" offset="0.648438"/><stop stop-opacity="1" stop-color="rgb(8.331299%, 88.723755%, 91.729736%)" offset="0.65625"/><stop stop-opacity="1" stop-color="rgb(8.447266%, 88.583374%, 92.089844%)" offset="0.664062"/><stop stop-opacity="1" stop-color="rgb(8.563232%, 88.442993%, 92.449951%)" offset="0.671875"/><stop stop-opacity="1" stop-color="rgb(8.679199%, 88.304138%, 92.808533%)" offset="0.679688"/><stop stop-opacity="1" stop-color="rgb(8.795166%, 88.163757%, 93.16864%)" offset="0.6875"/><stop stop-opacity="1" stop-color="rgb(8.911133%, 88.023376%, 93.527222%)" offset="0.695312"/><stop stop-opacity="1" stop-color="rgb(9.0271%, 87.882996%, 93.887329%)" offset="0.703125"/><stop stop-opacity="1" stop-color="rgb(9.143066%, 87.742615%, 94.245911%)" offset="0.710938"/><stop stop-opacity="1" stop-color="rgb(9.259033%, 87.602234%, 94.606018%)" offset="0.71875"/><stop stop-opacity="1" stop-color="rgb(9.375%, 87.461853%, 94.9646%)" offset="0.718875"/><stop stop-opacity="1" stop-color="rgb(9.432983%, 87.393188%, 95.144653%)" offset="0.726562"/><stop stop-opacity="1" stop-color="rgb(9.490967%, 87.322998%, 95.324707%)" offset="0.734375"/><stop stop-opacity="1" stop-color="rgb(9.606934%, 87.182617%, 95.683289%)" offset="0.742188"/><stop stop-opacity="1" stop-color="rgb(9.7229%, 87.042236%, 96.043396%)" offset="0.75"/><stop stop-opacity="1" stop-color="rgb(9.838867%, 86.901855%, 96.403503%)" offset="0.757812"/><stop stop-opacity="1" stop-color="rgb(9.954834%, 86.761475%, 96.762085%)" offset="0.765625"/><stop stop-opacity="1" stop-color="rgb(10.070801%, 86.621094%, 97.122192%)" offset="0.773438"/><stop stop-opacity="1" stop-color="rgb(10.186768%, 86.480713%, 97.480774%)" offset="0.78125"/><stop stop-opacity="1" stop-color="rgb(10.302734%, 86.340332%, 97.840881%)" offset="0.789062"/><stop stop-opacity="1" stop-color="rgb(10.418701%, 86.201477%, 98.199463%)" offset="0.796875"/><stop stop-opacity="1" stop-color="rgb(10.534668%, 86.061096%, 98.55957%)" offset="0.804688"/><stop stop-opacity="1" stop-color="rgb(10.650635%, 85.920715%, 98.918152%)" offset="0.8125"/><stop stop-opacity="1" stop-color="rgb(10.766602%, 85.780334%, 99.278259%)" offset="0.820312"/><stop stop-opacity="1" stop-color="rgb(10.882568%, 85.639954%, 99.636841%)" offset="0.828125"/><stop stop-opacity="1" stop-color="rgb(10.969543%, 85.534668%, 99.908447%)" offset="0.84375"/><stop stop-opacity="1" stop-color="rgb(10.998535%, 85.499573%, 100%)" offset="0.875"/><stop stop-opacity="1" stop-color="rgb(10.998535%, 85.499573%, 100%)" offset="1"/></linearGradient></defs><g fill="#ffffff" fill-opacity="1"><g transform="translate(33.604158, 42.396619)"><g><path d="M 5.171875 0.1875 C 4.703125 0.1875 4.3125 0.03125 4 -0.28125 C 3.6875 -0.601562 3.53125 -0.992188 3.53125 -1.453125 L 3.53125 -23.1875 C 3.53125 -23.832031 3.757812 -24.390625 4.21875 -24.859375 C 4.675781 -25.335938 5.234375 -25.578125 5.890625 -25.578125 L 7.09375 -25.578125 C 7.582031 -25.578125 8.023438 -25.429688 8.421875 -25.140625 C 8.828125 -24.847656 9.125 -24.484375 9.3125 -24.046875 L 17.578125 -3.453125 L 25.84375 -24.046875 C 26.03125 -24.484375 26.320312 -24.847656 26.71875 -25.140625 C 27.125 -25.429688 27.570312 -25.578125 28.0625 -25.578125 L 29.265625 -25.578125 C 29.910156 -25.578125 30.460938 -25.335938 30.921875 -24.859375 C 31.390625 -24.390625 31.625 -23.832031 31.625 -23.1875 L 31.625 -1.453125 C 31.625 -0.992188 31.460938 -0.601562 31.140625 -0.28125 C 30.828125 0.03125 30.441406 0.1875 29.984375 0.1875 C 29.523438 0.1875 29.128906 0.03125 28.796875 -0.28125 C 28.472656 -0.601562 28.3125 -0.992188 28.3125 -1.453125 L 28.3125 -22.125 L 19.90625 -1.34375 C 19.707031 -0.882812 19.394531 -0.515625 18.96875 -0.234375 C 18.550781 0.046875 18.085938 0.1875 17.578125 0.1875 C 17.066406 0.1875 16.597656 0.046875 16.171875 -0.234375 C 15.742188 -0.515625 15.4375 -0.882812 15.25 -1.34375 L 6.84375 -22.125 L 6.84375 -1.453125 C 6.84375 -0.992188 6.675781 -0.601562 6.34375 -0.28125 C 6.019531 0.03125 5.628906 0.1875 5.171875 0.1875 Z M 5.171875 0.1875 "/></g></g></g><g fill="#ffffff" fill-opacity="1"><g transform="translate(68.749876, 42.396619)"><g><path d="M 5.171875 0 C 4.703125 0 4.3125 -0.15625 4 -0.46875 C 3.6875 -0.789062 3.53125 -1.179688 3.53125 -1.640625 L 3.53125 -23.734375 C 3.53125 -24.191406 3.6875 -24.582031 4 -24.90625 C 4.3125 -25.238281 4.703125 -25.40625 5.171875 -25.40625 L 19.765625 -25.40625 C 20.203125 -25.40625 20.570312 -25.25 20.875 -24.9375 C 21.175781 -24.632812 21.328125 -24.265625 21.328125 -23.828125 C 21.328125 -23.398438 21.175781 -23.039062 20.875 -22.75 C 20.570312 -22.457031 20.203125 -22.3125 19.765625 -22.3125 L 6.84375 -22.3125 L 6.84375 -14.265625 L 18.453125 -14.265625 C 18.890625 -14.265625 19.257812 -14.113281 19.5625 -13.8125 C 19.863281 -13.507812 20.015625 -13.140625 20.015625 -12.703125 C 20.015625 -12.265625 19.863281 -11.898438 19.5625 -11.609375 C 19.257812 -11.316406 18.890625 -11.171875 18.453125 -11.171875 L 6.84375 -11.171875 L 6.84375 -3.09375 L 19.765625 -3.09375 C 20.203125 -3.09375 20.570312 -2.941406 20.875 -2.640625 C 21.175781 -2.335938 21.328125 -1.96875 21.328125 -1.53125 C 21.328125 -1.09375 21.175781 -0.726562 20.875 -0.4375 C 20.570312 -0.144531 20.203125 0 19.765625 0 Z M 5.171875 0 "/></g></g></g><g fill="#ffffff" fill-opacity="1"><g transform="translate(91.962063, 42.396619)"><g><path d="M 5.171875 0 C 4.703125 0 4.3125 -0.15625 4 -0.46875 C 3.6875 -0.789062 3.53125 -1.179688 3.53125 -1.640625 L 3.53125 -23.734375 C 3.53125 -24.191406 3.6875 -24.582031 4 -24.90625 C 4.3125 -25.238281 4.703125 -25.40625 5.171875 -25.40625 L 12.484375 -25.40625 C 15.242188 -25.40625 17.585938 -24.789062 19.515625 -23.5625 C 21.453125 -22.332031 22.90625 -20.75 23.875 -18.8125 C 24.84375 -16.875 25.328125 -14.835938 25.328125 -12.703125 C 25.328125 -10.566406 24.84375 -8.523438 23.875 -6.578125 C 22.90625 -4.640625 21.453125 -3.054688 19.515625 -1.828125 C 17.585938 -0.609375 15.242188 0 12.484375 0 Z M 12.078125 -3.09375 C 14.066406 -3.09375 15.8125 -3.5 17.3125 -4.3125 C 18.820312 -5.125 19.988281 -6.25 20.8125 -7.6875 C 21.632812 -9.132812 22.046875 -10.804688 22.046875 -12.703125 C 22.046875 -14.585938 21.632812 -16.253906 20.8125 -17.703125 C 19.988281 -19.148438 18.820312 -20.28125 17.3125 -21.09375 C 15.8125 -21.90625 14.066406 -22.3125 12.078125 -22.3125 L 6.84375 -22.3125 L 6.84375 -3.09375 Z M 12.078125 -3.09375 "/></g></g></g><g fill="#ffffff" fill-opacity="1"><g transform="translate(119.285491, 42.396619)"><g><path d="M 5.171875 0.1875 C 4.703125 0.1875 4.3125 0.03125 4 -0.28125 C 3.6875 -0.601562 3.53125 -0.992188 3.53125 -1.453125 L 3.53125 -23.90625 C 3.53125 -24.363281 3.6875 -24.753906 4 -25.078125 C 4.3125 -25.410156 4.703125 -25.578125 5.171875 -25.578125 C 5.628906 -25.578125 6.019531 -25.410156 6.34375 -25.078125 C 6.675781 -24.753906 6.84375 -24.363281 6.84375 -23.90625 L 6.84375 -1.453125 C 6.84375 -0.992188 6.675781 -0.601562 6.34375 -0.28125 C 6.019531 0.03125 5.628906 0.1875 5.171875 0.1875 Z M 5.171875 0.1875 "/></g></g></g><g fill="#ffffff" fill-opacity="1"><g transform="translate(129.654571, 42.396619)"><g><path d="M 3.453125 0.1875 C 2.972656 0.1875 2.578125 0.03125 2.265625 -0.28125 C 1.960938 -0.601562 1.8125 -0.992188 1.8125 -1.453125 C 1.8125 -1.648438 1.875 -1.894531 2 -2.1875 L 11.28125 -24.09375 C 11.476562 -24.53125 11.75 -24.882812 12.09375 -25.15625 C 12.445312 -25.4375 12.878906 -25.578125 13.390625 -25.578125 L 13.75 -25.578125 C 14.257812 -25.578125 14.691406 -25.4375 15.046875 -25.15625 C 15.398438 -24.882812 15.671875 -24.53125 15.859375 -24.09375 L 25.140625 -2.1875 C 25.265625 -1.894531 25.328125 -1.648438 25.328125 -1.453125 C 25.328125 -0.992188 25.175781 -0.601562 24.875 -0.28125 C 24.570312 0.03125 24.175781 0.1875 23.6875 0.1875 C 23.351562 0.1875 23.046875 0.0976562 22.765625 -0.078125 C 22.484375 -0.265625 22.269531 -0.519531 22.125 -0.84375 L 19.765625 -6.515625 L 7.390625 -6.515625 L 5.015625 -0.84375 C 4.867188 -0.519531 4.65625 -0.265625 4.375 -0.078125 C 4.101562 0.0976562 3.796875 0.1875 3.453125 0.1875 Z M 8.65625 -9.53125 L 18.484375 -9.53125 L 13.578125 -21.359375 Z M 8.65625 -9.53125 "/></g></g></g><g fill="#ffffff" fill-opacity="1"><g transform="translate(156.79609, 42.396619)"><g/></g></g><g fill="#ffffff" fill-opacity="1"><g transform="translate(166.255603, 42.396619)"><g><path d="M 5.171875 0 C 4.703125 0 4.3125 -0.15625 4 -0.46875 C 3.6875 -0.789062 3.53125 -1.179688 3.53125 -1.640625 L 3.53125 -23.734375 C 3.53125 -24.191406 3.6875 -24.582031 4 -24.90625 C 4.3125 -25.238281 4.703125 -25.40625 5.171875 -25.40625 L 12.484375 -25.40625 C 15.242188 -25.40625 17.585938 -24.789062 19.515625 -23.5625 C 21.453125 -22.332031 22.90625 -20.75 23.875 -18.8125 C 24.84375 -16.875 25.328125 -14.835938 25.328125 -12.703125 C 25.328125 -10.566406 24.84375 -8.523438 23.875 -6.578125 C 22.90625 -4.640625 21.453125 -3.054688 19.515625 -1.828125 C 17.585938 -0.609375 15.242188 0 12.484375 0 Z M 12.078125 -3.09375 C 14.066406 -3.09375 15.8125 -3.5 17.3125 -4.3125 C 18.820312 -5.125 19.988281 -6.25 20.8125 -7.6875 C 21.632812 -9.132812 22.046875 -10.804688 22.046875 -12.703125 C 22.046875 -14.585938 21.632812 -16.253906 20.8125 -17.703125 C 19.988281 -19.148438 18.820312 -20.28125 17.3125 -21.09375 C 15.8125 -21.90625 14.066406 -22.3125 12.078125 -22.3125 L 6.84375 -22.3125 L 6.84375 -3.09375 Z M 12.078125 -3.09375 "/></g></g></g><g fill="#ffffff" fill-opacity="1"><g transform="translate(193.579031, 42.396619)"><g><path d="M 5.171875 0.1875 C 4.703125 0.1875 4.3125 0.03125 4 -0.28125 C 3.6875 -0.601562 3.53125 -0.992188 3.53125 -1.453125 L 3.53125 -23.734375 C 3.53125 -24.191406 3.6875 -24.582031 4 -24.90625 C 4.3125 -25.238281 4.703125 -25.40625 5.171875 -25.40625 L 13.640625 -25.40625 C 16.941406 -25.40625 19.414062 -24.722656 21.0625 -23.359375 C 22.71875 -22.003906 23.546875 -20.222656 23.546875 -18.015625 C 23.546875 -16.554688 23.140625 -15.226562 22.328125 -14.03125 C 21.515625 -12.832031 20.332031 -11.960938 18.78125 -11.421875 C 20.519531 -10.960938 21.710938 -9.878906 22.359375 -8.171875 C 23.003906 -6.460938 23.328125 -4.78125 23.328125 -3.125 L 23.328125 -1.453125 C 23.328125 -0.992188 23.164062 -0.601562 22.84375 -0.28125 C 22.53125 0.03125 22.144531 0.1875 21.6875 0.1875 C 21.175781 0.1875 20.769531 0.0351562 20.46875 -0.265625 C 20.164062 -0.578125 20.015625 -0.972656 20.015625 -1.453125 L 20.015625 -2.546875 C 20.015625 -3.753906 19.90625 -4.875 19.6875 -5.90625 C 19.46875 -6.9375 18.945312 -7.859375 18.125 -8.671875 C 17.300781 -9.484375 16.050781 -9.890625 14.375 -9.890625 L 6.84375 -9.890625 L 6.84375 -1.453125 C 6.84375 -0.992188 6.675781 -0.601562 6.34375 -0.28125 C 6.019531 0.03125 5.628906 0.1875 5.171875 0.1875 Z M 13.421875 -13.03125 C 15.515625 -13.03125 17.171875 -13.441406 18.390625 -14.265625 C 19.617188 -15.085938 20.234375 -16.253906 20.234375 -17.765625 C 20.234375 -19.210938 19.703125 -20.320312 18.640625 -21.09375 C 17.585938 -21.875 15.789062 -22.265625 13.25 -22.265625 L 6.84375 -22.265625 L 6.84375 -13.03125 Z M 13.421875 -13.03125 "/></g></g></g><g fill="#ffffff" fill-opacity="1"><g transform="translate(219.483541, 42.396619)"><g><path d="M 14.78125 0.359375 C 12.226562 0.359375 9.992188 -0.195312 8.078125 -1.3125 C 6.160156 -2.425781 4.679688 -3.960938 3.640625 -5.921875 C 2.597656 -7.890625 2.050781 -10.148438 2 -12.703125 C 2.050781 -15.242188 2.597656 -17.5 3.640625 -19.46875 C 4.679688 -21.4375 6.160156 -22.976562 8.078125 -24.09375 C 9.992188 -25.207031 12.226562 -25.765625 14.78125 -25.765625 C 17.320312 -25.765625 19.546875 -25.207031 21.453125 -24.09375 C 23.359375 -22.976562 24.835938 -21.429688 25.890625 -19.453125 C 26.941406 -17.472656 27.492188 -15.222656 27.546875 -12.703125 C 27.492188 -10.179688 26.941406 -7.929688 25.890625 -5.953125 C 24.835938 -3.972656 23.359375 -2.425781 21.453125 -1.3125 C 19.546875 -0.195312 17.320312 0.359375 14.78125 0.359375 Z M 14.78125 -2.734375 C 16.71875 -2.734375 18.398438 -3.164062 19.828125 -4.03125 C 21.265625 -4.90625 22.359375 -6.09375 23.109375 -7.59375 C 23.859375 -9.101562 24.234375 -10.804688 24.234375 -12.703125 C 24.234375 -14.585938 23.859375 -16.28125 23.109375 -17.78125 C 22.359375 -19.289062 21.265625 -20.484375 19.828125 -21.359375 C 18.398438 -22.234375 16.71875 -22.671875 14.78125 -22.671875 C 12.8125 -22.671875 11.113281 -22.234375 9.6875 -21.359375 C 8.269531 -20.484375 7.1875 -19.289062 6.4375 -17.78125 C 5.6875 -16.28125 5.3125 -14.585938 5.3125 -12.703125 C 5.3125 -10.804688 5.6875 -9.101562 6.4375 -7.59375 C 7.1875 -6.09375 8.269531 -4.90625 9.6875 -4.03125 C 11.113281 -3.164062 12.8125 -2.734375 14.78125 -2.734375 Z M 14.78125 -2.734375 "/></g></g></g><g fill="#ffffff" fill-opacity="1"><g transform="translate(249.026305, 42.396619)"><g><path d="M 5.171875 0.1875 C 4.703125 0.1875 4.3125 0.03125 4 -0.28125 C 3.6875 -0.601562 3.53125 -0.992188 3.53125 -1.453125 L 3.53125 -23.734375 C 3.53125 -24.191406 3.6875 -24.582031 4 -24.90625 C 4.3125 -25.238281 4.703125 -25.40625 5.171875 -25.40625 L 13.46875 -25.40625 C 15.769531 -25.40625 17.644531 -25.015625 19.09375 -24.234375 C 20.550781 -23.460938 21.597656 -22.46875 22.234375 -21.25 C 22.867188 -20.039062 23.1875 -18.734375 23.1875 -17.328125 C 23.1875 -15.921875 22.867188 -14.609375 22.234375 -13.390625 C 21.597656 -12.179688 20.550781 -11.1875 19.09375 -10.40625 C 17.644531 -9.632812 15.769531 -9.25 13.46875 -9.25 L 6.84375 -9.25 L 6.84375 -1.453125 C 6.84375 -0.992188 6.675781 -0.601562 6.34375 -0.28125 C 6.019531 0.03125 5.628906 0.1875 5.171875 0.1875 Z M 13.140625 -12.375 C 15.609375 -12.375 17.347656 -12.847656 18.359375 -13.796875 C 19.367188 -14.742188 19.875 -15.921875 19.875 -17.328125 C 19.875 -18.734375 19.367188 -19.90625 18.359375 -20.84375 C 17.347656 -21.789062 15.609375 -22.265625 13.140625 -22.265625 L 6.84375 -22.265625 L 6.84375 -12.375 Z M 13.140625 -12.375 "/></g></g></g><g fill="#ffffff" fill-opacity="1"><g transform="translate(273.475501, 42.396619)"><g><path d="M 11.53125 0.359375 C 8.457031 0.359375 5.570312 -0.222656 2.875 -1.390625 C 2.582031 -1.503906 2.335938 -1.703125 2.140625 -1.984375 C 1.953125 -2.265625 1.859375 -2.5625 1.859375 -2.875 C 1.859375 -3.289062 1.992188 -3.648438 2.265625 -3.953125 C 2.546875 -4.253906 2.90625 -4.40625 3.34375 -4.40625 C 3.59375 -4.40625 3.828125 -4.351562 4.046875 -4.25 C 6.273438 -3.257812 8.660156 -2.765625 11.203125 -2.765625 C 15.453125 -2.765625 17.578125 -4.160156 17.578125 -6.953125 C 17.578125 -7.679688 17.300781 -8.285156 16.75 -8.765625 C 16.207031 -9.253906 15.535156 -9.632812 14.734375 -9.90625 C 13.929688 -10.1875 12.789062 -10.523438 11.3125 -10.921875 C 9.351562 -11.429688 7.765625 -11.921875 6.546875 -12.390625 C 5.335938 -12.859375 4.296875 -13.566406 3.421875 -14.515625 C 2.546875 -15.460938 2.109375 -16.722656 2.109375 -18.296875 C 2.109375 -19.679688 2.472656 -20.9375 3.203125 -22.0625 C 3.929688 -23.195312 5.003906 -24.097656 6.421875 -24.765625 C 7.835938 -25.429688 9.539062 -25.765625 11.53125 -25.765625 C 14.195312 -25.765625 16.613281 -25.363281 18.78125 -24.5625 C 19.457031 -24.320312 19.796875 -23.835938 19.796875 -23.109375 C 19.796875 -22.722656 19.660156 -22.367188 19.390625 -22.046875 C 19.128906 -21.734375 18.78125 -21.578125 18.34375 -21.578125 C 18.195312 -21.578125 18.003906 -21.625 17.765625 -21.71875 C 15.867188 -22.375 13.914062 -22.703125 11.90625 -22.703125 C 9.988281 -22.703125 8.425781 -22.335938 7.21875 -21.609375 C 6.019531 -20.890625 5.421875 -19.875 5.421875 -18.5625 C 5.421875 -17.6875 5.703125 -16.972656 6.265625 -16.421875 C 6.835938 -15.878906 7.554688 -15.457031 8.421875 -15.15625 C 9.285156 -14.851562 10.457031 -14.53125 11.9375 -14.1875 C 13.851562 -13.726562 15.398438 -13.269531 16.578125 -12.8125 C 17.753906 -12.351562 18.757812 -11.632812 19.59375 -10.65625 C 20.4375 -9.6875 20.859375 -8.378906 20.859375 -6.734375 C 20.859375 -5.367188 20.46875 -4.144531 19.6875 -3.0625 C 18.90625 -1.988281 17.8125 -1.148438 16.40625 -0.546875 C 15 0.0546875 13.375 0.359375 11.53125 0.359375 Z M 11.53125 0.359375 "/></g></g></g><g clip-path="url(#9b25f52c9a)"><g clip-path="url(#3ca70c66ed)"><path fill="#00faa8" d="M 153.421875 24.101562 L 164.316406 24.101562 L 164.316406 34.996094 L 153.421875 34.996094 Z M 153.421875 24.101562 " fill-opacity="1" fill-rule="nonzero"/></g></g><g clip-path="url(#7a786235c1)"><g clip-path="url(#f357019f1d)"><path fill="url(#d3ffccef64)" d="M 0.00390625 13.539062 L 0.00390625 48.707031 L 33.671875 48.707031 L 33.671875 13.539062 Z M 0.00390625 13.539062 " fill-rule="nonzero"/></g></g></svg>